<svg width="24" height="24" viewBox="0 0 24 24" fill="none" xmlns="http://www.w3.org/2000/svg">
<path d="M24 12C24 18.6274 18.6274 24 12 24C5.37258 24 0 18.6274 0 12C0 5.37258 5.37258 0 12 0C18.6274 0 24 5.37258 24 12ZM1.69973 12C1.69973 17.6887 6.31132 22.3003 12 22.3003C17.6887 22.3003 22.3003 17.6887 22.3003 12C22.3003 6.31132 17.6887 1.69973 12 1.69973C6.31132 1.69973 1.69973 6.31132 1.69973 12Z" fill="white"/>
<rect x="3.8894" y="5.14355" width="1.79974" height="22.0228" transform="rotate(-44.4741 3.8894 5.14355)" fill="white"/>
</svg>
