<svg width="22" height="21" viewBox="0 0 22 21" fill="none" xmlns="http://www.w3.org/2000/svg">
<path fill-rule="evenodd" clip-rule="evenodd" d="M7.55119 14.0622H9.36106V0.862244H7.55119V6.60622H1.80987V0.862244H0V14.0622H1.80987V8.3284H7.55119V14.0622ZM20.0192 14.0622H22L19.1846 8.27775C19.4729 8.14943 19.7578 7.98059 20.0393 7.77122C20.3208 7.56186 20.5722 7.31197 20.7934 7.02157C21.0146 6.73116 21.1923 6.39686 21.3263 6.01865C21.4671 5.64045 21.5375 5.21497 21.5375 4.74221C21.5375 4.28972 21.4771 3.88112 21.3565 3.51643C21.2358 3.14498 21.075 2.81742 20.8739 2.53377C20.6795 2.24336 20.4516 1.99348 20.1901 1.78412C19.9354 1.57475 19.6706 1.40254 19.3958 1.26746C19.121 1.13239 18.8461 1.03108 18.5713 0.963548C18.2965 0.896012 18.0451 0.862244 17.8172 0.862244H12.4077V14.0622H14.2176V8.60192H17.4452L20.0192 14.0622ZM18.521 6.75818C18.2931 6.83922 18.0786 6.87974 17.8775 6.87974H14.2176V2.59455H17.8775C18.0786 2.59455 18.2931 2.63845 18.521 2.72625C18.7489 2.81405 18.9567 2.94574 19.1444 3.12134C19.3388 3.29693 19.4997 3.5198 19.6271 3.78995C19.7544 4.06009 19.8181 4.37752 19.8181 4.74221C19.8181 5.11366 19.7544 5.43446 19.6271 5.70461C19.4997 5.97475 19.3388 6.19762 19.1444 6.37322C18.9567 6.54206 18.7489 6.67038 18.521 6.75818ZM22 18.4622H0V20.6622H22V18.4622Z" fill="#2C87F2"/>
</svg>
