<svg width="22" height="23" viewBox="0 0 22 23" fill="none" xmlns="http://www.w3.org/2000/svg">
<path d="M9.88889 4.88446C9.88889 4.33218 9.43977 3.87865 8.89098 3.94065C7.48603 4.09937 6.13408 4.59166 4.95049 5.38251C3.48872 6.35923 2.34941 7.74749 1.67663 9.37172C1.00385 10.996 0.827818 12.7832 1.1708 14.5075C1.51378 16.2318 2.36036 17.8156 3.6035 19.0587C4.84663 20.3019 6.43048 21.1485 8.15475 21.4914C9.87903 21.8344 11.6663 21.6584 13.2905 20.9856C14.9148 20.3128 16.303 19.1735 17.2797 17.7118C18.0706 16.5282 18.5629 15.1762 18.7216 13.7713C18.7836 13.2225 18.3301 12.7733 17.7778 12.7733H11.3889C10.5605 12.7733 9.88889 12.1018 9.88889 11.2733V4.88446Z" stroke="#2C87F2" stroke-width="2"/>
<path d="M13.2222 2.66223C13.2222 2.10995 13.6718 1.65562 14.2195 1.72643C14.8981 1.81417 15.5637 1.99129 16.1986 2.25428C17.1423 2.64515 17.9997 3.21806 18.7219 3.94029C19.4442 4.66252 20.0171 5.51994 20.408 6.46358C20.6709 7.0985 20.8481 7.76409 20.9358 8.44275C21.0066 8.99048 20.5523 9.44001 20 9.44001L14.2222 9.44001C13.6699 9.44001 13.2222 8.99229 13.2222 8.44001V2.66223Z" stroke="#2C87F2" stroke-width="2"/>
</svg>
