<svg width="25" height="19" viewBox="0 0 25 19" fill="none" xmlns="http://www.w3.org/2000/svg">
<ellipse cx="3.86054" cy="3.86054" rx="3.86054" ry="3.86054" transform="matrix(-1 0 0 1 16.4421 0.999969)" stroke="#383A3E" stroke-width="2"/>
<path d="M5.82568 14.4489C5.82568 13.6186 6.34768 12.8779 7.12967 12.5986V12.5986C10.6553 11.3394 14.508 11.3394 18.0336 12.5986V12.5986C18.8156 12.8779 19.3376 13.6186 19.3376 14.4489V15.7186C19.3376 16.8646 18.3225 17.745 17.188 17.5829L16.4 17.4703C13.8673 17.1085 11.296 17.1085 8.76325 17.4703L7.97524 17.5829C6.84072 17.745 5.82568 16.8646 5.82568 15.7186V14.4489Z" stroke="#383A3E" stroke-width="2"/>
<path d="M18.3724 8.82791C20.0476 8.82791 21.4056 7.46986 21.4056 5.79463C21.4056 4.1194 20.0476 2.76135 18.3724 2.76135" stroke="#383A3E" stroke-width="2" stroke-linecap="round"/>
<path d="M21.6946 15.7481L21.9918 15.7906C22.8832 15.9179 23.6807 15.2262 23.6807 14.3258V13.3282C23.6807 12.6758 23.2706 12.0938 22.6562 11.8743C22.0433 11.6554 21.4178 11.485 20.7853 11.363" stroke="#383A3E" stroke-width="2" stroke-linecap="round"/>
<path d="M6.3083 8.82791C4.63307 8.82791 3.27502 7.46986 3.27502 5.79463C3.27502 4.1194 4.63307 2.76135 6.3083 2.76135" stroke="#383A3E" stroke-width="2" stroke-linecap="round"/>
<path d="M2.98612 15.7481L2.68892 15.7906C1.79751 15.9179 0.999983 15.2262 0.999983 14.3258V13.3282C0.999983 12.6758 1.41012 12.0938 2.02454 11.8743C2.63743 11.6554 3.2629 11.485 3.89539 11.363" stroke="#383A3E" stroke-width="2" stroke-linecap="round"/>
</svg>
