<svg width="319" height="178" viewBox="0 0 319 178" fill="none" xmlns="http://www.w3.org/2000/svg">
<g clip-path="url(#clip0_3_32)">
<path fill-rule="evenodd" clip-rule="evenodd" d="M133.64 19.608C142.46 19.4366 142.089 2.54205 133.64 1.22818L83.5748 0.971123C-12.5876 2.21358 -44.2564 161.234 89.2264 176.9C99.0167 176.515 108.051 173.216 114.145 166.761L179.252 37.8022C182.149 31.5042 185.189 31.0615 188.429 37.6736L255.163 175.201C263.869 178.957 271.961 179.043 279.311 174.701L197.092 6.42651C191.5 -1.99999 182.948 -2.97047 175.313 6.86923L104.654 144.982C101.257 151.437 96.5763 155.122 90.8248 156.507C6.59349 159.72 -15.6703 30.5473 86.686 18.7511L133.64 19.6223V19.608Z" fill="#2C87F2"/>
<path fill-rule="evenodd" clip-rule="evenodd" d="M160.813 102.11C214.831 92.099 264.668 69.7776 318.814 49.2413C280.295 72.1625 238.565 92.5274 193.338 110.079L202.572 138.113L186.716 147.181L160.799 102.11H160.813Z" fill="#009E08"/>
</g>
<defs>
<clipPath id="clip0_3_32">
<rect width="319" height="178" fill="white"/>
</clipPath>
</defs>
</svg>
