<svg width="23" height="23" viewBox="0 0 23 23" fill="none" xmlns="http://www.w3.org/2000/svg">
<ellipse cx="4.66667" cy="4.66667" rx="4.66667" ry="4.66667" transform="matrix(-1 0 0 1 13.8333 1.89001)" stroke="#383A3E" stroke-width="2"/>
<path d="M1 18.1471C1 17.1434 1.631 16.248 2.57627 15.9104V15.9104C6.83805 14.3883 11.4953 14.3883 15.7571 15.9104V15.9104C16.7023 16.248 17.3333 17.1434 17.3333 18.1471V20.0007C17.3333 21.2178 16.2554 22.1527 15.0505 21.9806L12.985 21.6855C10.4523 21.3237 7.88102 21.3237 5.34829 21.6855L3.28284 21.9806C2.07798 22.1527 1 21.2178 1 20.0007V18.1471Z" stroke="#383A3E" stroke-width="2"/>
<path d="M17.3333 11.2233H22" stroke="#383A3E" stroke-width="2" stroke-linecap="round" stroke-linejoin="round"/>
<path d="M19.6667 8.89002L19.6667 13.5567" stroke="#383A3E" stroke-width="2" stroke-linecap="round" stroke-linejoin="round"/>
</svg>
