<svg width="22" height="18" viewBox="0 0 22 18" fill="none" xmlns="http://www.w3.org/2000/svg">
<path d="M17 13.8625C19.2459 13.6395 21 11.7446 21 9.44001C21 6.76711 18.5452 4.66472 15.9198 5.0407C15.9155 5.04132 15.9113 5.03913 15.9093 5.03528C14.9052 3.035 12.8351 1.66223 10.4444 1.66223C7.25974 1.66223 4.64402 4.09832 4.35907 7.2087C4.3586 7.21387 4.35421 7.21786 4.34902 7.21786C2.52707 7.21628 1 8.72279 1 10.5511C1 12.3921 2.49238 13.8845 4.33333 13.8845H5" stroke="#383A3E" stroke-width="2" stroke-linecap="round"/>
<path d="M8.5 14.1622L10.6464 16.3087C10.8417 16.5039 11.1583 16.5039 11.3535 16.3087L13.5 14.1622" stroke="#383A3E" stroke-width="2" stroke-linecap="round"/>
<path d="M11 15.6622L11 9.66223" stroke="#383A3E" stroke-width="2" stroke-linecap="round"/>
</svg>
