<svg width="22" height="22" viewBox="0 0 22 22" fill="none" xmlns="http://www.w3.org/2000/svg">
<path d="M3.22217 1.8623H18.7777V19.8279C18.7777 20.6582 17.8243 21.1268 17.1669 20.6197L15.4472 19.293C15.1124 19.0348 14.6513 19.015 14.2956 19.2436L12.0815 20.667C11.4226 21.0906 10.5772 21.0906 9.91843 20.667L7.70426 19.2436C7.34856 19.015 6.8875 19.0348 6.55269 19.293L4.83297 20.6197C4.17555 21.1268 3.22217 20.6582 3.22217 19.8279V1.8623Z" stroke="#383A3E" stroke-width="2"/>
<path d="M7.66663 8.5287H11" stroke="#383A3E" stroke-width="2" stroke-linecap="round" stroke-linejoin="round"/>
<path d="M1 1.8622H21" stroke="#383A3E" stroke-width="2" stroke-linecap="round" stroke-linejoin="round"/>
<path d="M7.66663 12.9735H11" stroke="#383A3E" stroke-width="2" stroke-linecap="round" stroke-linejoin="round"/>
<path d="M14.3334 8.5287H14.8889" stroke="#383A3E" stroke-width="2" stroke-linecap="round" stroke-linejoin="round"/>
<path d="M14.3334 12.9735H14.8889" stroke="#383A3E" stroke-width="2" stroke-linecap="round" stroke-linejoin="round"/>
</svg>
