<svg width="30" height="30" viewBox="0 0 30 30" fill="none" xmlns="http://www.w3.org/2000/svg">
<path d="M15 2C14.172 2 13.5 2.6715 13.5 3.5V10C13.5 10.8285 14.172 11.5 15 11.5C15.828 11.5 16.5 10.8285 16.5 10V3.5C16.5 2.6715 15.828 2 15 2Z" fill="white"/>
<path d="M15 25C20.2385 25 24.5 20.7385 24.5 15.5C24.5 12.156 22.677 9.012 19.742 7.2945C19.2655 7.0155 19 6.5145 19 6C18.999 5.1855 19.6575 4.501 20.5 4.5C20.758 4.4995 21.019 4.566 21.258 4.7055C25.108 6.959 27.5 11.095 27.5 15.5C27.5 22.3925 21.8925 28 15 28C8.1075 28 2.5 22.3925 2.5 15.5C2.5 11.095 4.892 6.959 8.742 4.7055C8.9805 4.566 9.242 4.4995 9.5 4.5C10.342 4.501 11.001 5.1855 11 6C10.9995 6.5145 10.734 7.0155 10.258 7.2945C7.323 9.012 5.5 12.1565 5.5 15.5C5.5 20.7385 9.7615 25 15 25Z" fill="white"/>
</svg>
